<svg width="60" height="60" style="border: 1px solid rgb(204, 204, 204); background-color: rgb(255, 255, 255);"><line x1="30" y1="0" x2="30" y2="60" stroke-dasharray="8" stroke="#ddd"></line>
        <line x1="0" y1="30" x2="60" y2="30" stroke-dasharray="8" stroke="#ddd"></line><line x1="0" y1="0" x2="60" y2="60" stroke-dasharray="8" stroke="#ddd"></line>
        <line x1="60" y1="0" x2="0" y2="60" stroke-dasharray="8" stroke="#ddd"></line><defs><clipPath id="mask-463"><path d="M 462 594 Q 519 609 632 632 C 661 638 643 660 613 655 Q 505 639 389 609 Q 377 605 373 608 Q 372 612 380 622 Q 510 755 537 776 Q 552 783 547 798 Q 543 811 498 842 Q 482 852 472 850 Q 459 846 461 824 Q 470 752 335 637 Q 313 622 285 606 Q 270 596 273 584 Q 276 566 299 543 Q 309 531 324 541 Q 357 566 414 580 L 462 594 Z"></path></clipPath><clipPath id="mask-464"><path d="M 632 632 Q 671 593 683 588 Q 689 585 693 588 Q 697 591 703 603 Q 707 615 705 628 Q 696 679 589 724 Q 588 725 587 725 Q 578 728 575 723 Q 571 719 576 709 Q 600 669 613 655 L 632 632 Z"></path></clipPath><clipPath id="mask-465"><path d="M 577 471 Q 665 480 823 479 Q 842 480 848 488 Q 852 500 836 514 Q 776 556 718 537 Q 624 519 478 495 Q 460 494 442 489 L 376 480 Q 267 467 148 450 Q 127 449 143 431 Q 173 404 221 415 Q 282 433 353 443 C 383 447 395 439 414 447 Q 417 459 545 469 L 577 471 Z"></path></clipPath><clipPath id="mask-466"><path d="M 442 489 Q 466 523 482 536 Q 494 545 491 554 Q 488 572 462 594 C 440 615 416 610 414 580 Q 417 552 376 480 L 353 443 Q 305 370 256 320 Q 210 274 113 211 Q 100 199 109 196 Q 113 193 127 197 Q 280 242 414 447 L 442 489 Z"></path></clipPath><clipPath id="mask-467"><path d="M 545 469 Q 546 466 551 462 Q 639 354 736 256 Q 778 210 945 238 Q 964 239 965 245 Q 968 252 953 258 Q 773 328 769 331 Q 697 373 577 471 C 554 490 526 492 545 469 Z"></path></clipPath><clipPath id="mask-468"><path d="M 471 412 Q 459 355 321 243 Q 302 230 326 232 Q 392 239 511 358 Q 524 373 534 380 Q 544 390 542 399 Q 539 411 517 418 Q 492 428 481 425 Q 474 424 471 412 Z"></path></clipPath><clipPath id="mask-469"><path d="M 519 318 Q 504 249 329 123 Q 310 110 334 112 Q 409 118 529 233 Q 532 240 581 284 Q 591 294 589 302 Q 588 314 565 322 Q 540 332 529 330 Q 522 329 519 318 Z"></path></clipPath><clipPath id="mask-470"><path d="M 580 239 Q 580 169 438 54 Q 435 53 433 50 Q 393 19 295 -37 Q 286 -40 296 -45 Q 351 -54 489 37 Q 495 43 503 47 Q 552 84 631 162 Q 641 172 648 177 Q 657 180 657 191 Q 658 201 648 215 Q 621 251 590 251 Q 580 251 580 239 Z"></path></clipPath><clipPath id="mask-471"><path d="M 462 594 Q 519 609 632 632 C 661 638 643 660 613 655 Q 505 639 389 609 Q 377 605 373 608 Q 372 612 380 622 Q 510 755 537 776 Q 552 783 547 798 Q 543 811 498 842 Q 482 852 472 850 Q 459 846 461 824 Q 470 752 335 637 Q 313 622 285 606 Q 270 596 273 584 Q 276 566 299 543 Q 309 531 324 541 Q 357 566 414 580 L 462 594 Z"></path></clipPath><clipPath id="mask-472"><path d="M 632 632 Q 671 593 683 588 Q 689 585 693 588 Q 697 591 703 603 Q 707 615 705 628 Q 696 679 589 724 Q 588 725 587 725 Q 578 728 575 723 Q 571 719 576 709 Q 600 669 613 655 L 632 632 Z"></path></clipPath><clipPath id="mask-473"><path d="M 577 471 Q 665 480 823 479 Q 842 480 848 488 Q 852 500 836 514 Q 776 556 718 537 Q 624 519 478 495 Q 460 494 442 489 L 376 480 Q 267 467 148 450 Q 127 449 143 431 Q 173 404 221 415 Q 282 433 353 443 C 383 447 395 439 414 447 Q 417 459 545 469 L 577 471 Z"></path></clipPath><clipPath id="mask-474"><path d="M 442 489 Q 466 523 482 536 Q 494 545 491 554 Q 488 572 462 594 C 440 615 416 610 414 580 Q 417 552 376 480 L 353 443 Q 305 370 256 320 Q 210 274 113 211 Q 100 199 109 196 Q 113 193 127 197 Q 280 242 414 447 L 442 489 Z"></path></clipPath><clipPath id="mask-475"><path d="M 545 469 Q 546 466 551 462 Q 639 354 736 256 Q 778 210 945 238 Q 964 239 965 245 Q 968 252 953 258 Q 773 328 769 331 Q 697 373 577 471 C 554 490 526 492 545 469 Z"></path></clipPath><clipPath id="mask-476"><path d="M 471 412 Q 459 355 321 243 Q 302 230 326 232 Q 392 239 511 358 Q 524 373 534 380 Q 544 390 542 399 Q 539 411 517 418 Q 492 428 481 425 Q 474 424 471 412 Z"></path></clipPath><clipPath id="mask-477"><path d="M 519 318 Q 504 249 329 123 Q 310 110 334 112 Q 409 118 529 233 Q 532 240 581 284 Q 591 294 589 302 Q 588 314 565 322 Q 540 332 529 330 Q 522 329 519 318 Z"></path></clipPath><clipPath id="mask-478"><path d="M 580 239 Q 580 169 438 54 Q 435 53 433 50 Q 393 19 295 -37 Q 286 -40 296 -45 Q 351 -54 489 37 Q 495 43 503 47 Q 552 84 631 162 Q 641 172 648 177 Q 657 180 657 191 Q 658 201 648 215 Q 621 251 590 251 Q 580 251 580 239 Z"></path></clipPath><clipPath id="mask-479"><path d="M 462 594 Q 519 609 632 632 C 661 638 643 660 613 655 Q 505 639 389 609 Q 377 605 373 608 Q 372 612 380 622 Q 510 755 537 776 Q 552 783 547 798 Q 543 811 498 842 Q 482 852 472 850 Q 459 846 461 824 Q 470 752 335 637 Q 313 622 285 606 Q 270 596 273 584 Q 276 566 299 543 Q 309 531 324 541 Q 357 566 414 580 L 462 594 Z"></path></clipPath><clipPath id="mask-480"><path d="M 632 632 Q 671 593 683 588 Q 689 585 693 588 Q 697 591 703 603 Q 707 615 705 628 Q 696 679 589 724 Q 588 725 587 725 Q 578 728 575 723 Q 571 719 576 709 Q 600 669 613 655 L 632 632 Z"></path></clipPath><clipPath id="mask-481"><path d="M 577 471 Q 665 480 823 479 Q 842 480 848 488 Q 852 500 836 514 Q 776 556 718 537 Q 624 519 478 495 Q 460 494 442 489 L 376 480 Q 267 467 148 450 Q 127 449 143 431 Q 173 404 221 415 Q 282 433 353 443 C 383 447 395 439 414 447 Q 417 459 545 469 L 577 471 Z"></path></clipPath><clipPath id="mask-482"><path d="M 442 489 Q 466 523 482 536 Q 494 545 491 554 Q 488 572 462 594 C 440 615 416 610 414 580 Q 417 552 376 480 L 353 443 Q 305 370 256 320 Q 210 274 113 211 Q 100 199 109 196 Q 113 193 127 197 Q 280 242 414 447 L 442 489 Z"></path></clipPath><clipPath id="mask-483"><path d="M 545 469 Q 546 466 551 462 Q 639 354 736 256 Q 778 210 945 238 Q 964 239 965 245 Q 968 252 953 258 Q 773 328 769 331 Q 697 373 577 471 C 554 490 526 492 545 469 Z"></path></clipPath><clipPath id="mask-484"><path d="M 471 412 Q 459 355 321 243 Q 302 230 326 232 Q 392 239 511 358 Q 524 373 534 380 Q 544 390 542 399 Q 539 411 517 418 Q 492 428 481 425 Q 474 424 471 412 Z"></path></clipPath><clipPath id="mask-485"><path d="M 519 318 Q 504 249 329 123 Q 310 110 334 112 Q 409 118 529 233 Q 532 240 581 284 Q 591 294 589 302 Q 588 314 565 322 Q 540 332 529 330 Q 522 329 519 318 Z"></path></clipPath><clipPath id="mask-486"><path d="M 580 239 Q 580 169 438 54 Q 435 53 433 50 Q 393 19 295 -37 Q 286 -40 296 -45 Q 351 -54 489 37 Q 495 43 503 47 Q 552 84 631 162 Q 641 172 648 177 Q 657 180 657 191 Q 658 201 648 215 Q 621 251 590 251 Q 580 251 580 239 Z"></path></clipPath></defs></svg>
